<svg id="SvgjsSvg1001" width="288" height="288" xmlns="http://www.w3.org/2000/svg" version="1.1" xmlns:xlink="http://www.w3.org/1999/xlink" xmlns:svgjs="http://svgjs.com/svgjs"><defs id="SvgjsDefs1002"></defs><g id="SvgjsG1008" transform="matrix(1,0,0,1,0,0)"><svg xmlns="http://www.w3.org/2000/svg" enable-background="new 0 0 50 50" viewBox="0 0 50 50" width="288" height="288"><path fill="#ffffff" d="M8.667 15h30c.552 0 1-.447 1-1s-.448-1-1-1h-30c-.552 0-1 .447-1 1S8.114 15 8.667 15zM8.667 37h30c.552 0 1-.447 1-1s-.448-1-1-1h-30c-.552 0-1 .447-1 1S8.114 37 8.667 37zM8.667 26h30c.552 0 1-.447 1-1s-.448-1-1-1h-30c-.552 0-1 .447-1 1S8.114 26 8.667 26z" class="color231F20 svgShape"></path></svg></g></svg>