<?xml version="1.0" encoding="UTF-8"?>
<svg width="136px" height="164px" viewBox="0 0 136 164" version="1.1" xmlns="http://www.w3.org/2000/svg" xmlns:xlink="http://www.w3.org/1999/xlink">
    <title>KalimahLogo</title>
    <g id="Page-1" stroke="none" stroke-width="1" fill="none" fill-rule="evenodd">
        <g id="KalimahLogo" fill="#2F3C6E" fill-rule="nonzero">
            <polygon id="Path" points="12.78 160 9.42 154.03 7.37 156.46 7.36 159.98 5.53 159.97 5.58 147.89 7.41 147.9 7.38 153.97 12.35 147.92 14.58 147.93 10.65 152.65 14.94 160.01"></polygon>
            <path d="M21.09,156.93 C21.09,157.54 20.97,157.95 20.71,158.2 C20.25,158.64 19.76,158.69 19.1,158.69 C18.02,158.68 17.53,158.24 17.53,157.46 C17.53,156.68 18.06,156.22 19.08,156.23 L21.1,156.24 L21.09,156.93 Z M19.29,151.33 C17.86,151.32 17.02,151.61 16.2,152.56 L17.33,153.63 C17.81,153.02 18.27,152.8 19.22,152.81 C20.56,152.82 21.1,153.34 21.1,154.43 L21.1,155.04 L18.83,155.03 C16.86,155.02 15.86,156.05 15.85,157.49 C15.85,158.22 16.08,158.88 16.52,159.34 C17.04,159.87 17.75,160.13 18.82,160.13 C19.89,160.13 20.48,159.88 21.11,159.26 L21.11,160.04 L22.81,160.05 L22.84,154.3 C22.83,152.34 21.65,151.34 19.29,151.33" id="Shape"></path>
            <path d="M27.77,160.07 C26.12,160.06 25.42,158.96 25.42,157.69 L25.46,147.99 L27.19,148 L27.15,157.6 C27.15,158.26 27.38,158.6 28.08,158.61 L28.84,158.61 L28.83,160.09 L27.77,160.07 Z" id="Path"></path>
            <rect id="Rectangle" transform="translate(31.641793, 148.867016) rotate(-89.749939) translate(-31.641793, -148.867016) " x="30.7267844" y="147.952007" width="1.83001743" height="1.83001743"></rect>
            <rect id="Rectangle" transform="translate(31.620256, 155.773288) rotate(-89.746845) translate(-31.620256, -155.773288) " x="27.320214" y="154.908279" width="8.60008395" height="1.73001689"></rect>
            <path d="M45.69,160.14 L45.71,154.9 C45.72,153.56 44.95,152.98 43.99,152.98 C43.06,152.98 42.21,153.57 42.2,154.8 L42.18,160.13 L40.45,160.12 L40.47,154.88 C40.48,153.54 39.71,152.96 38.75,152.95 C37.79,152.95 36.97,153.54 36.96,154.86 L36.94,160.1 L35.21,160.09 L35.25,151.49 L36.95,151.5 L36.95,152.37 C37.53,151.75 38.38,151.41 39.24,151.41 C40.31,151.41 41.14,151.84 41.68,152.68 C42.38,151.83 43.25,151.43 44.38,151.44 C45.26,151.44 46.04,151.74 46.55,152.23 C47.21,152.88 47.46,153.69 47.45,154.66 L47.43,160.16 L45.69,160.14 Z" id="Path"></path>
            <path d="M54.68,157.08 C54.68,157.69 54.56,158.1 54.3,158.35 C53.84,158.79 53.35,158.84 52.69,158.84 C51.61,158.83 51.12,158.39 51.12,157.61 C51.12,156.83 51.65,156.37 52.67,156.38 L54.69,156.39 L54.68,157.08 Z M52.89,151.47 C51.46,151.46 50.62,151.75 49.8,152.7 L50.93,153.77 C51.41,153.16 51.87,152.94 52.82,152.95 C54.16,152.96 54.7,153.48 54.7,154.57 L54.7,155.18 L52.43,155.17 C50.46,155.16 49.46,156.19 49.45,157.63 C49.45,158.36 49.68,159.02 50.12,159.48 C50.64,160.01 51.35,160.27 52.42,160.27 C53.49,160.27 54.08,160.02 54.71,159.4 L54.71,160.18 L56.41,160.19 L56.43,154.44 C56.43,152.49 55.25,151.48 52.89,151.47" id="Shape"></path>
            <path d="M64.26,160.22 L64.28,154.95 C64.29,153.64 63.52,153.06 62.56,153.06 C61.59,153.06 60.81,153.65 60.8,154.94 L60.78,160.21 L59.05,160.2 L59.1,148.13 L60.83,148.14 L60.81,152.48 C61.41,151.84 62.19,151.52 63.04,151.52 C64.96,151.53 66.02,152.82 66.01,154.69 L65.99,160.24 L64.26,160.22 Z" id="Path"></path>
            <polygon id="Path" points="77.05 149.85 77.01 160.28 75.18 160.27 75.22 149.84 71.9 149.83 71.9 148.18 80.38 148.22 80.38 149.86"></polygon>
            <path d="M85.63,157.21 C85.63,157.82 85.51,158.23 85.25,158.48 C84.79,158.92 84.3,158.97 83.64,158.96 C82.56,158.96 82.06,158.51 82.07,157.73 C82.07,156.95 82.6,156.49 83.62,156.5 L85.64,156.51 L85.63,157.21 Z M83.84,151.61 C82.41,151.6 81.57,151.89 80.75,152.84 L81.88,153.91 C82.36,153.3 82.82,153.08 83.77,153.09 C85.11,153.1 85.65,153.62 85.65,154.71 L85.65,155.32 L83.38,155.31 C81.41,155.3 80.41,156.33 80.4,157.77 C80.4,158.5 80.63,159.16 81.07,159.62 C81.59,160.15 82.3,160.41 83.37,160.41 C84.44,160.41 85.03,160.16 85.66,159.54 L85.66,160.32 L87.36,160.33 L87.38,154.58 C87.38,152.62 86.2,151.62 83.84,151.61" id="Shape"></path>
            <path d="M92.69,162.06 C92.52,162.53 92.31,162.87 92.06,163.13 C91.58,163.6 90.95,163.75 90.29,163.75 L89.59,163.75 L89.6,162.19 L90.04,162.19 C90.77,162.19 91.02,161.97 91.28,161.28 L91.76,159.94 L88.79,151.73 L90.62,151.74 L92.65,157.8 L94.68,151.75 L96.53,151.76 L92.69,162.06 Z" id="Path"></path>
            <path d="M99.06,155.37 C99.08,154.84 99.11,154.59 99.29,154.2 C99.56,153.56 100.19,153.12 101.01,153.12 C101.82,153.12 102.43,153.57 102.7,154.21 C102.87,154.6 102.92,154.85 102.93,155.38 L99.06,155.37 Z M104.640056,155.84 C104.65,153.4 103.32,151.7 101.01,151.689954 C98.81,151.68 97.36,153.29 97.3499561,156.07 C97.34,159.34 99.04,160.49 101.2,160.5 C102.71,160.51 103.54,160.05 104.43,159.17 L103.33,158.13 C102.72,158.74 102.21,159.01 101.24,159 C99.83,158.99 99.06,158.06 99.06,156.58 L104.640056,156.6 L104.640056,155.84 Z" id="Shape"></path>
            <path d="M110.44,158.980056 C108.88,158.97 108.65,157.63 108.66,156.11 C108.67,154.58 108.91,153.26 110.47,153.269944 C112.03,153.28 112.25,154.6 112.24,156.13 C112.23,157.65 112,158.99 110.44,158.980056 M113.01,152.5 C112.54,152.02 111.79,151.73 110.93,151.73 C110.01,151.73 109.3,151.94 108.67,152.69 L108.69,148.35 L106.96,148.34 L106.91,160.42 L108.61,160.43 L108.62,159.51 C109.26,160.29 109.96,160.53 110.89,160.54 C111.75,160.54 112.52,160.26 113,159.79 C113.87,158.93 113.98,157.45 113.98,156.15 C113.97,154.83 113.87,153.37 113.01,152.5" id="Shape"></path>
            <path d="M120.89,157.37 C120.89,157.98 120.77,158.39 120.51,158.64 C120.05,159.08 119.56,159.13 118.9,159.12 C117.82,159.12 117.33,158.67 117.33,157.89 C117.33,157.11 117.86,156.65 118.88,156.66 L120.9,156.67 L120.89,157.37 Z M119.1,151.76 C117.67,151.75 116.83,152.04 116.01,152.99 L117.14,154.06 C117.62,153.45 118.08,153.23 119.03,153.24 C120.37,153.25 120.91,153.77 120.9,154.86 L120.9,155.47 L118.63,155.46 C116.66,155.45 115.66,156.48 115.65,157.92 C115.65,158.65 115.88,159.31 116.32,159.77 C116.84,160.3 117.55,160.56 118.62,160.56 C119.69,160.57 120.28,160.31 120.91,159.69 L120.91,160.47 L122.61,160.48 L122.630063,154.73 C122.64,152.78 121.46,151.77 119.1,151.76" id="Shape"></path>
            <path d="M130.47,160.51 L130.49,155.24 C130.5,153.93 129.73,153.35 128.77,153.35 C127.8,153.35 127.02,153.94 127.01,155.23 L126.99,160.5 L125.26,160.49 L125.31,148.41 L127.04,148.42 L127.02,152.76 C127.62,152.12 128.4,151.8 129.25,151.8 C131.17,151.81 132.23,153.1 132.22,154.97 L132.2,160.52 L130.47,160.51 Z" id="Path"></path>
            <path d="M21.96,8.46 C20.88,7.92 20.37,7.16 20.37,6.11 C20.37,5.45 20.5,4.97 20.72,4.67 C20.94,4.37 21.26,4.22 21.73,4.22 C22.22,4.22 22.55,4.38 22.79,4.68 C23.02,4.98 23.15,5.46 23.14,6.12 C23.13,7.05 22.74,7.81 21.96,8.46 M12.82,11.34 C14.45,13.05 16.48,13.9301042 18.9,13.9301042 C21.19,13.94 23.09,13.23 24.55,11.81 C26.01,10.39 26.75,8.55 26.7601562,6.35 C26.77,4.74 26.3,3.39 25.35,2.34 C24.4,1.29 23.19,0.75 21.75,0.75 C20.35,0.74 19.16,1.27 18.2,2.31 C17.24,3.35 16.76,4.67 16.75,6.24 C16.74,7.77 17.24,9 18.23,9.88 C18.12,9.89 18.01,9.91 17.9,9.91 C15.88,9.9 14.17,8.74 12.74,6.35 L12.7,6.28 L10.98,6.27 L7.71,11.34 L11.34,13.69 L12.82,11.34 Z" id="Shape"></path>
            <polygon id="Path" points="76.09 86.52 78.3 81.86 63.4 84.51 63.37 84.57 61.19 89.17"></polygon>
            <path d="M62.04,74.17 L62.03,76.36 C62.02,77.66 62.48,78.75 63.39,79.6 C64.3,80.44 65.46,80.87 66.85,80.88 C68.02,80.89 69.04,80.58 69.91,79.97 C70.77,80.59 71.8,80.9 72.96,80.91 C74.35,80.92 75.5,80.5 76.4,79.66 C77.29,78.82 77.75,77.74 77.75,76.43 L77.77,70.68 L74.21,72.66 L74.2,76.21 C74.2,76.64 74.09,76.94 73.9,77.13 C73.71,77.32 73.41,77.43 72.98,77.42 C72.52,77.42 72.2,77.32 72,77.16 C71.8,77 71.7,76.76 71.7,76.4 L71.72,71.33 L68.09,73.31 L68.08,76.39 C68.08,76.75 67.98,76.99 67.79,77.15 C67.6,77.31 67.3,77.4 66.86,77.4 C66.43,77.4 66.13,77.29 65.94,77.1 C65.75,76.91 65.64,76.61 65.65,76.18 L65.67,72.2 L62.04,74.17 Z" id="Path"></path>
            <rect id="Rectangle" transform="translate(19.486018, 24.417226) rotate(-44.748811) translate(-19.486018, -24.417226) " x="16.6060179" y="21.5372259" width="5.76000012" height="5.76000012"></rect>
            <rect id="Rectangle" transform="translate(11.220422, 24.369296) rotate(-44.756914) translate(-11.220422, -24.369296) " x="8.3404237" y="21.4892977" width="5.7599966" height="5.7599966"></rect>
            <rect id="Rectangle" transform="translate(19.237788, 82.343412) rotate(-44.748811) translate(-19.237788, -82.343412) " x="16.3577879" y="79.4634119" width="5.76000012" height="5.76000012"></rect>
            <rect id="Rectangle" transform="translate(10.973976, 82.301744) rotate(-44.748811) translate(-10.973976, -82.301744) " x="8.09397594" y="79.4217439" width="5.76000012" height="5.76000012"></rect>
            <rect id="Rectangle" transform="translate(72.695720, 134.447094) rotate(-44.748811) translate(-72.695720, -134.447094) " x="69.8157199" y="131.567094" width="5.76000012" height="5.76000012"></rect>
            <rect id="Rectangle" transform="translate(64.392003, 134.398903) rotate(-44.756914) translate(-64.392003, -134.398903) " x="61.5120047" y="131.518905" width="5.7599966" height="5.7599966"></rect>
            <rect id="Rectangle" transform="translate(46.164434, 134.331690) rotate(-44.748811) translate(-46.164434, -134.331690) " x="43.2844339" y="131.45169" width="5.76000012" height="5.76000012"></rect>
            <path d="M128.92,112.75 C128.91,115.17 128.54,116.8 127.91,117.6 C127.6,118 127.14,118.31 126.52,118.52 C125.9,118.73 125.11,118.84 124.16,118.83 L99.91,118.72 L99.92,117.84 C101.56,113.14 103.77,109.23 106.56,106.11 C110.3,101.96 114.44,99.92 119.01,99.9398544 C121.76,99.95 124,100.84 125.8,102.61 L125.8,102.61 C127.9,104.65 128.95,107.37 128.940071,110.84 L128.92,112.75 Z M13.78,116.780077 C11.82,116.77 10.27,116.02 9.05,114.49 C7.84,112.96 7.23,110.93 7.23987902,108.34 C7.25,105.8 7.88,103.78 9.11,102.24 C10.34,100.7 11.87,99.95 13.79,99.9599013 C16.13,99.97 18.06,100.85 19.68,102.6 L19.64,112.06 C19.64,112.51 19.68,113.11 19.76,113.87 C18.16,115.83 16.2,116.79 13.78,116.780077 M131.46,99.45 C128.34,95.79 124.15,93.94 118.96,93.93 C111.46,93.89 105.1,97.51 99.96,104.65 L100.07,80.2 L95.16,82.8 C93.97,83.63 93.68,85.37 93.62,86.35 L93.48,118.2 L93.34,118.7 L85.28,118.66 L80.63,118.64 L80.51,118.64 C78.33,118.63 76.76,118.07 75.73,117.01 C74.69,115.94 74.16,114.33 74.17,112.11 L74.25,94.43 L69.43,96.98 C68,97.9 67.81,100.13 67.8,100.97 L67.8,101.16 C67.8,101.25 67.8,101.3 67.8,101.3 L67.8,101.3 L67.75,112.08 C67.74,114.3 67.19,115.91 66.15,116.97 C65.11,118.03 63.53,118.57 61.35,118.56 L61.23,118.56 L56.57,118.54 L56.45,118.54 C54.27,118.53 52.7,117.97 51.67,116.91 C50.64,115.85 50.1,114.23 50.11,112.01 L50.19,94.33 L45.38,96.88 C43.59,98.02 43.74,101.2 43.74,101.2 L43.73,101.21 L43.68,111.99 C43.67,114.21 43.12,115.82 42.08,116.88 C41.04,117.94 39.46,118.48 37.28,118.47 L37.16,118.47 L32.39,118.45 C30.24,118.44 28.68,117.88 27.66,116.82 C26.64,115.76 26.11,114.14 26.12,111.92 L26.22,89.68 L21.95,91.92 C21.82,92.01 21.67,92.1 21.5,92.2 C19.56,93.26 19.75,95.63 19.75,95.63 L19.71,95.56 L19.71,95.67 C17.95,94.56 15.89,93.99 13.55,93.98 C10.22,93.96 7.36,95.14 5.04,97.5 C2.3,100.22 0.92,103.84 0.8997,108.29 C0.88,112.01 1.86,115.19 3.84,117.79 L3.85,117.8 L3.84,117.79 C6.23,120.86 9.5,122.42 13.56,122.43 C16.71,122.45 19.41,121.46 21.6,119.49 C23.69,122.84 27.1,124.54 31.7,124.55 L32.5,124.55 L37.95,124.57 C41.65,124.59 44.65,123.43 46.87,121.12 C49.07,123.45 52.05,124.63 55.76,124.64 L56.56,124.64 L61.22,124.66 L62.02,124.66 C65.72,124.68 68.72,123.52 70.94,121.21 C73.14,123.54 76.12,124.72 79.83,124.73 L80.63,124.73 L85.28,124.75 L124.62,124.920286 C128.03,124.94 130.71,123.91 132.6,121.83 C134.48,119.75 135.42,116.81 135.43,113.05 L135.44,110.88 C135.44,106.38 134.12,102.55 131.46,99.45" id="Shape"></path>
            <path d="M65.65,59.61 C64.39,61.4 62.74,62.25 60.61,62.25 C58.3,62.23 56.64,61.41 55.51,59.74 C54.38,58.07 53.79,55.5 53.81,52.04 C53.82,48.63 54.43,46.1 55.58,44.46 C56.73,42.82 58.39,42.02 60.71,42.02 C63.05,42.04 64.72,42.86 65.87,44.5 C67.01,46.15 67.6,48.68 67.590125,52.09 C67.55,55.33 66.9,57.83 65.65,59.61 M14.08,59.13 C12.12,59.12 10.57,58.37 9.35,56.84 C8.14,55.31 7.53,53.27 7.53987902,50.69 C7.55,48.15 8.18,46.13 9.41,44.59 C10.64,43.05 12.17,42.3 14.09,42.3099013 C16.43,42.32 18.36,43.2 19.97,44.95 L19.93,54.42 C19.93,54.87 19.97,55.47 20.05,56.23 C18.46,58.18 16.5,59.13 14.08,59.13 M132.02,45.85 C130.8,44.53 129.22,43.8 127.54,43.4 C125.86,43 124.09,42.92 122.45,42.91 C120.98,42.9 119.53,42.97 118.08,42.98 C117.46,42.99 116.71,43.05 115.98,43.04 C115.21,43.04 114.46,42.96 113.96,42.7 C113.82,42.62 113.73,42.51 113.65,42.28 C113.58,42.05 113.55,41.72 113.55,41.3 L113.55,41.14 L113.55,41.11 L113.55,41.13 C113.58,40.02 113.7,39.24 114.34,38.36 C114.76,37.79 115.46,37.34 116.24,36.95 C117.02,36.56 117.87,36.23 118.59,35.85 C118.67,35.81 118.75,35.76 118.83,35.72 L130,30.36 L126.5,27.73 C126.43,27.68 126.36,27.64 126.28,27.59 C125.26,26.88 123.89,27.08 122.89,27.4 L116.49,30.26 C115.77,30.5 115.05,30.77 114.35,31.07 C112.39,31.92 110.51,33.14 109.11,34.74 C107.71,36.33 106.79,38.31 106.78,40.62 L106.77,43.91 L106.78,43.91 C106.78,43.97 106.77,44.03 106.77,44.09 L106.77,44.37 L106.77,44.38 C106.83,46.96 108.76,49.06 111.27,49.4 L111.29,49.4 L124.31,49.46 C125.04,49.46 125.65,49.56 126.14,49.76 C126.64,49.96 127.03,50.25 127.32,50.64 C127.91,51.43 128.13,52.61 128.12,54.22 L128.1,58.6 C128.08,59.97 127,61.09 125.66,61.19 L108.71,61.12 L108.71,61.11 L103.94,61.09 C101.62,61.08 100.03,60.52 99.1,59.47 C98.16,58.42 97.66,56.61 97.67,54.02 L97.81,22.55 L93.15,24.99 C93.12,25.01 93.1,25.02 93.07,25.04 C91.13,26.1 91.3,29.45 91.3,29.45 L91.3,29.46 L91.19,53.94 C91.18,56.37 90.59,58.13 89.48,59.29 C88.37,60.45 86.69,61.04 84.38,61.03 L80.49,61.01 L80.3,61.01 C78.15,61 76.59,60.44 75.57,59.38 C74.55,58.31 74.02,56.7 74.02,54.48 L74.03,52.24 C74.05,47.62 73.06,43.88 71.03,41.05 L71.03,41.05 C68.64,37.75 65.18,36.07 60.76,36.06 C56.89,36.04 53.75,37.31 51.42,39.85 C48.76,42.72 47.44,46.83 47.42,52.13 L47.41,54.37 C47.4,56.59 46.85,58.2 45.81,59.26 C44.77,60.32 43.19,60.86 41.01,60.85 L37.51,60.83 L36.23,60.82 L32.73,60.8 C30.58,60.79 29.02,60.23 28,59.17 C26.98,58.11 26.45,56.49 26.45,54.27 L26.55,32.15 L22.06,34.42 C21.97,34.47 21.89,34.53 21.79,34.58 C20.34,35.38 20.08,36.92 20.04,37.63 L20.04,38.01 L20.04,38.01 C18.28,36.9 16.22,36.33 13.88,36.32 C10.55,36.3 7.69,37.48 5.37,39.83 L5.37,39.83 L5.37,39.83 L5.37,39.83 C2.63,42.55 1.25,46.17 1.2297,50.62 C1.21,54.34 2.19,57.52 4.17,60.12 L4.17,60.12 C6.56,63.19 9.83,64.74 13.89,64.76 C17.04,64.78 19.74,63.79 21.93,61.82 C24.02,65.17 27.43,66.87 32.03,66.88 L36.21,66.9 L37.48,66.91 L41.66,66.93 C45.39,66.95 48.37,65.82 50.55,63.58 C52.85,66.75 56.24,68.36 60.62,68.3801841 C65,68.4 68.43,66.79 70.79,63.6 C72.99,65.91 75.96,67.09 79.65,67.1 L80.45,67.1 L84.82,67.12 L85.11,67.12 L85.11,67.11 C88.9,67.07 91.95,65.88 94.21,63.54 C96.37,65.96 99.41,67.18 103.24,67.2 L105.27,67.21 L105.27,67.23 L129.37,67.34 L129.4,67.33 C132.24,66.63 134.38,64.16 134.6,61.16 L134.6,61.15 L134.63,54.12 C134.61,50.5 133.76,47.73 132.02,45.85" id="Shape"></path>
        </g>
    </g>
</svg>